<?xml version="1.0" encoding="UTF-8"?><svg id="Camada_2" xmlns="http://www.w3.org/2000/svg" viewBox="0 0 734.43 301.47"><g id="Camada_1-2"><path d="M82.75,266.52c-28.99,2.84-57.2-12.55-71.91-37.78-3.28-5.63-5.88-11.74-7.71-18-.21-.73-.85-3.27-1.06-4.09-.23-.97-.64-3.21-.85-4.14-.19-1.39-.46-2.81-.63-4.18-.13-1.08-.3-3.19-.4-4.21l-.07-1.41-.12-2.82c.02-1.03,0-3.27,.02-4.24,.98-30.16,18.92-56.88,46.21-69.62,2.91-1.36,6.12-2.64,9.16-3.63,2.11-.7,4.63-1.38,6.76-1.92,.87-.18,3.2-.69,4.12-.86,3.59-.62,7.49-1.1,11.12-1.24,1.82-.12,3.76-.09,5.57-.1,1.63,.04,3.15-.31,4.58-1.06,.93-.52,1.8-1.18,2.5-1.98,.95-1.08,2.12-3.13,2.94-4.32,4.81-6.84,11.07-12.64,18.31-16.81,7.42-4.25,15.8-6.79,24.33-7.34,6.59-.44,13.26,.29,19.58,2.2,3.61,1.08,7.09,2.54,10.4,4.31l-5.08,.79c10.28-9.92,31.12-29.97,41.43-39.87l-.54,.72c5.81-9.96,17.91-30.76,23.72-40.6,2.99-4.9,10.23-5.82,14.29-1.73,1.75,1.75,5.57,5.83,7.33,7.64,6.27,6.48,22.6,23.78,29.03,30.49l-1,1c-10.08-9.6-26.96-25.62-36.83-35.08-.22-.21-.74-.71-.95-.91-2.05-2.09-5.64-2.02-7.48,.23-.11,.17-.25,.31-.36,.48l-.15,.26-.08,.13-.04,.06-.05,.1-.41,.78-1.63,3.1c-4.04,7.57-15.46,29.28-19.68,37.21l-.18,.35-.36,.38c-11.06,11.49-30.96,32.2-42.02,43.65l-2.94-1.44c-7.07-3.47-15.01-5.15-22.87-4.72-4.66,.17-9.35,1.16-13.74,2.71-8.74,3.22-16.49,9.08-21.82,16.71-.39,.57-.96,1.33-1.29,1.92l-1.2,1.98c-1.75,3.07-4.36,5.74-7.43,7.55-3.09,1.82-6.72,2.82-10.29,2.85-3.61,.1-7.17,.4-10.71,1.02-.86,.15-2.64,.54-3.5,.71-1.27,.34-3.35,.82-4.59,1.24-6.03,1.8-11.83,4.57-17.15,7.92-1.05,.73-2.87,1.89-3.87,2.7-1.34,.96-2.88,2.25-4.15,3.3-1.56,1.39-3.23,2.95-4.7,4.44-31.22,32.51-26.02,84.29,11.01,110.19,9.51,6.63,20.83,11.11,32.36,12.91,1.43,.28,3.65,.48,5.1,.69v1.41h0Z"/><path d="M226.49,68.72c-12,12.91-27.12,28.93-39.33,41.79-3.34,3.55-9.95,10.46-13.32,13.97-1.47,1.01-2.66,2.41-3.38,4.01-2.2,4.87,.09,10.63,5.11,12.51,1.99,.71,4.26,.74,6.23-.03,.88-.32,1.72-.8,2.44-1.38,.33-.28,.7-.57,1.1-.78,2.63-1.51,6.28-.42,7.67,2.26,.64,1.15,.83,2.53,.58,3.82-.01,.12-.45,1.79-.49,1.96-.42,1.64-.95,3.28-1.57,4.86-3.64,9.5-10.24,17.8-18.66,23.47-.82,.59-1.96,1.26-2.83,1.77-.34,.21-1.09,.64-1.45,.81l-1.47,.76c-4.44,2.07-7.53,6.21-8.18,11.44h-.71c-.88-5.44,1.69-11.16,6.12-14.41,9.32-6.46,16.65-15.77,20.33-26.39,.69-1.84,1.2-3.75,1.7-5.65-.21,1.16,1.22,2.54,2.61,1.48-.41,.3-.85,.63-1.28,.89-4.59,2.95-10.73,3.14-15.51,.55-7.27-3.81-10.32-12.98-6.57-20.31,1.18-2.31,2.95-4.29,5.09-5.7l-.36,.3c3.44-3.29,10.38-9.94,13.84-13.2,12.89-12.2,28.84-27.31,41.8-39.32l.5,.5h0Z"/><circle cx="131.97" cy="146.46" r="21.86"/><g><path d="M270.36,175.24c0,4.15-1.14,7.84-3.41,11.08-2.27,3.24-5.38,5.94-9.33,8.08,2.54,1.74,4.56,3.86,6.07,6.37,1.5,2.51,2.26,5.27,2.26,8.28,0,3.61-1.09,7.17-3.26,10.68-2.17,3.51-5.07,6.62-8.68,9.33-3.61,2.71-7.72,4.9-12.34,6.57-4.61,1.67-9.33,2.51-14.14,2.51-5.22,0-9.78-.99-13.69-2.96-3.91-1.97-6.97-4.77-9.18-8.38,.67-2.01,1.56-4.5,2.66-7.47,1.1-2.98,2.32-6.12,3.66-9.43,1.34-3.31,2.69-6.6,4.06-9.88,1.37-3.28,2.66-6.22,3.86-8.83,2.54-5.68,4.82-10.4,6.82-14.14,2.01-3.74,3.85-6.72,5.52-8.93-3.68,1.14-7.02,2.43-10.03,3.86-3.01,1.44-5.22,2.83-6.62,4.16-.6-.4-1.22-1-1.86-1.81-.64-.8-1.24-1.69-1.81-2.66-.57-.97-1.04-1.96-1.4-2.96-.37-1-.59-1.91-.65-2.71,1.74-1.2,4-2.36,6.77-3.46,2.77-1.1,5.8-2.06,9.08-2.86,3.28-.8,6.64-1.44,10.08-1.91,3.44-.47,6.74-.7,9.88-.7,8.03,0,14.31,1.61,18.86,4.82,4.55,3.21,6.82,7.66,6.82,13.34Zm-38.22,23.98c-1.27-.6-2.44-1.5-3.51-2.71-1.54,3.41-2.99,6.76-4.36,10.03-1.37,3.28-2.59,6.32-3.66,9.13-1.07,2.81-1.94,5.25-2.61,7.32-.67,2.07-1.04,3.58-1.1,4.51,.94,.54,2.06,.94,3.36,1.2,1.3,.27,2.93,.4,4.87,.4,4.55,0,8.89-.63,13.04-1.91,4.15-1.27,7.79-2.99,10.93-5.17,3.14-2.17,5.65-4.66,7.52-7.47,1.87-2.81,2.81-5.75,2.81-8.83,0-4.41-1.91-7.59-5.72-9.53-5.22,2.14-11.1,3.21-17.66,3.21h-2.16c-.5,0-1.09-.07-1.76-.2Zm19.46-34.81c-1.4,0-2.89,.08-4.46,.25-1.57,.17-3.23,.42-4.97,.75,.27,.27,.48,.55,.65,.85,.17,.3,.32,.62,.45,.95-.6,.8-1.34,1.97-2.21,3.51-.87,1.54-1.84,3.33-2.91,5.37-1.07,2.04-2.19,4.3-3.36,6.77-1.17,2.47-2.36,5.02-3.56,7.62,1.14-.27,2.52-.48,4.16-.65,1.64-.17,3.26-.25,4.87-.25,.87,0,1.72,.03,2.56,.1,.84,.07,1.65,.17,2.46,.3,3.21-.53,6.1-1.32,8.68-2.36,2.57-1.04,4.8-2.24,6.67-3.61,1.87-1.37,3.31-2.89,4.31-4.56,1-1.67,1.5-3.44,1.5-5.32,0-3.21-1.27-5.63-3.81-7.27-2.54-1.64-6.22-2.46-11.04-2.46Z"/><path d="M307.58,189.99c.67,0,1.45,.12,2.36,.35,.9,.24,1.72,.54,2.46,.9,.74,.37,1.35,.75,1.86,1.15s.75,.77,.75,1.1c-1.34,2.81-2.57,5.63-3.71,8.48-1.14,2.84-2.11,5.57-2.91,8.18-.8,2.61-1.42,5.05-1.86,7.32-.44,2.27-.65,4.25-.65,5.92,0,1.87,.2,3.43,.6,4.66,.4,1.24,1.07,2.12,2.01,2.66-.8,.53-1.84,.97-3.11,1.3-1.27,.33-2.41,.5-3.41,.5-3.61,0-5.42-2.47-5.42-7.42,0-3.81,1.27-9.03,3.81-15.65-1.34,3.06-2.88,5.94-4.61,8.64-1.74,2.7-3.51,5.08-5.32,7.14-1.81,2.06-3.63,3.75-5.47,5.04-1.84,1.3-3.53,2.08-5.07,2.35-2.47,0-4.48-1.12-6.02-3.37-1.54-2.25-2.31-5.12-2.31-8.61,0-3.76,.8-7.72,2.41-11.89,1.6-4.16,3.66-8.03,6.17-11.59,2.51-3.56,5.23-6.53,8.18-8.91,2.94-2.38,5.78-3.58,8.53-3.58,.67,.2,1.42,.6,2.26,1.2,.84,.6,1.64,1.3,2.41,2.1,.77,.8,1.42,1.62,1.96,2.45,.53,.83,.84,1.55,.9,2.15-2.68,.4-5.43,1.7-8.28,3.9-2.84,2.2-5.42,4.85-7.72,7.96-2.31,3.1-4.2,6.42-5.67,9.96-1.47,3.54-2.21,6.84-2.21,9.91,0,1.27,.47,2.07,1.4,2.4,1.94-.4,4.18-2.06,6.72-4.97,2.54-2.91,5.62-7.41,9.23-13.49,.67-1.2,1.42-2.54,2.26-4.01,.84-1.47,1.69-3.01,2.56-4.61,.87-1.6,1.72-3.23,2.56-4.87,.84-1.64,1.62-3.23,2.36-4.77Z"/><path d="M336.37,181.86c1.74,.54,3.38,1.72,4.92,3.56,1.54,1.84,2.67,3.86,3.41,6.07-.74,1.81-1.87,3.98-3.41,6.52-1.54,2.54-3.08,5.13-4.61,7.78-1.54,2.64-2.93,5.15-4.16,7.52-1.24,2.38-1.96,4.33-2.16,5.87,1.07-1.14,2.26-2.46,3.56-3.96,1.3-1.51,2.57-3.01,3.81-4.51,1.24-1.51,2.39-2.88,3.46-4.11,1.07-1.24,1.91-2.16,2.51-2.76,1.27-1.34,2.78-2.89,4.51-4.66,1.74-1.77,3.56-3.44,5.47-5.02,1.91-1.57,3.83-2.91,5.77-4.01,1.94-1.1,3.71-1.65,5.32-1.65,1.74,0,3.19,.59,4.36,1.76,1.17,1.17,2.09,2.39,2.76,3.66,0,.13-.25,.32-.75,.55-.5,.23-1.22,.89-2.16,1.96-.94,1.2-1.99,2.86-3.16,4.97-1.17,2.11-2.31,4.38-3.41,6.82-1.1,2.44-2.02,4.93-2.76,7.47-.74,2.54-1.1,4.85-1.1,6.92,0,1.67,.22,2.74,.65,3.21,.43,.47,1.05,.7,1.86,.7,.74,0,1.5-.17,2.31-.5,.8-.33,1.44-.5,1.91-.5,.27,.13,.48,.42,.65,.85,.17,.44,.25,.82,.25,1.15-.54,.47-1.17,.94-1.91,1.41-.74,.47-1.51,.9-2.31,1.3s-1.59,.74-2.36,1c-.77,.27-1.46,.4-2.06,.4-1.94,0-3.53-.28-4.77-.85-1.24-.57-2.21-1.32-2.91-2.26-.7-.94-1.19-2.06-1.46-3.36-.27-1.3-.4-2.69-.4-4.16,0-.8,.07-1.7,.2-2.71,.13-1,.4-2.19,.8-3.56,.4-1.37,.97-3.01,1.71-4.92,.74-1.91,1.67-4.2,2.81-6.87-.13,0-1.04,.47-2.71,1.4-1.67,.94-3.48,2.38-5.42,4.31-3.14,3.01-5.97,5.99-8.48,8.93-2.51,2.94-5.07,6.22-7.67,9.83-1.47,2.07-2.76,3.83-3.86,5.27-1.1,1.44-2.06,2.39-2.86,2.86-1.41-.8-2.44-1.92-3.11-3.36-.67-1.44-1.17-2.92-1.5-4.46,0-1.27,.18-2.87,.55-4.82,.37-1.94,.87-4.09,1.5-6.47,.63-2.37,1.42-4.87,2.36-7.47,.94-2.61,1.97-5.22,3.11-7.82,2.54-5.88,4.87-10.5,6.97-13.84,2.11-3.34,3.43-5.15,3.96-5.42Z"/><path d="M396.16,183.67c1.34,0,2.87,.4,4.61,1.2,1.74,.8,3.28,1.84,4.61,3.11-.34-2.67-.75-5.2-1.25-7.57-.5-2.37-1.24-4.83-2.21-7.37-.97-2.54-2.26-5.32-3.86-8.33-1.6-3.01-3.61-6.45-6.02-10.33,.2-.6,.65-1.3,1.35-2.11,.7-.8,1.51-1.56,2.41-2.26,.9-.7,1.84-1.32,2.81-1.86,.97-.53,1.89-.87,2.76-1,1.87,2.07,3.64,4.66,5.32,7.77,1.67,3.11,3.14,6.45,4.41,10.03,1.27,3.58,2.26,7.27,2.96,11.09s1.05,7.46,1.05,10.93-.39,7.06-1.15,10.73c-.77,3.68-1.84,7.27-3.21,10.78-1.37,3.51-2.96,6.84-4.77,9.98-1.81,3.14-3.76,5.95-5.87,8.43-2.11,2.48-4.3,4.5-6.57,6.07-2.27,1.57-4.55,2.56-6.82,2.96-4.61-.54-8.14-2.02-10.58-4.46-2.44-2.44-3.66-5.8-3.66-10.08,0-2.27,.35-4.75,1.05-7.42,.7-2.67,1.64-5.33,2.81-7.97,1.17-2.64,2.54-5.22,4.11-7.72,1.57-2.51,3.24-4.77,5.02-6.77,1.77-2.01,3.56-3.71,5.37-5.12,1.81-1.4,3.58-2.31,5.32-2.71Zm-10.23,48.25c2.34-.8,4.68-2.57,7.02-5.32,2.34-2.74,4.45-5.97,6.32-9.68,1.87-3.71,3.39-7.69,4.56-11.94,1.17-4.25,1.76-8.34,1.76-12.29v-2.11c0-.27-.03-.53-.1-.8-1.6,.67-3.31,1.81-5.12,3.41-1.81,1.6-3.61,3.46-5.42,5.57-1.81,2.11-3.51,4.4-5.12,6.87-1.61,2.47-3.04,4.95-4.31,7.42-1.27,2.48-2.27,4.85-3.01,7.12-.74,2.27-1.1,4.28-1.1,6.02,0,3.35,1.5,5.25,4.51,5.72Z"/><path d="M507.41,162.9c.2,1.14,.35,1.92,.45,2.36,.1,.44,.15,1.02,.15,1.76,0,2.21-.49,4.26-1.46,6.17-.97,1.91-2.29,3.26-3.96,4.06-1.34-1.81-2.98-3.36-4.92-4.66-1.94-1.3-4.06-2.37-6.37-3.21-2.31-.84-4.7-1.46-7.17-1.86s-4.88-.6-7.22-.6-4.53,.18-6.57,.55c-2.04,.37-3.85,.87-5.42,1.51-1.57,.64-2.81,1.42-3.71,2.36-.9,.94-1.35,2.01-1.35,3.21,.2,1.47,1.1,2.96,2.71,4.46,1.6,1.5,3.58,2.98,5.92,4.41,2.34,1.44,4.93,2.86,7.78,4.26,2.84,1.4,5.63,2.74,8.38,4.01,3.41,1.6,6.35,3.09,8.83,4.46,2.47,1.37,4.51,2.88,6.12,4.51,1.6,1.64,2.81,3.5,3.61,5.57,.8,2.07,1.2,4.58,1.2,7.52,0,3.41-.57,6.61-1.71,9.58-1.14,2.98-2.79,5.57-4.97,7.78-2.17,2.21-4.8,3.93-7.87,5.17-3.08,1.24-6.52,1.86-10.33,1.86s-7.79-.57-12.14-1.71c-4.35-1.14-8.41-2.69-12.19-4.66-3.78-1.97-6.92-4.25-9.43-6.82s-3.76-5.3-3.76-8.18c0-1.34,.38-3.04,1.15-5.12,.77-2.07,2.16-4.25,4.16-6.52,.2,2.01,1.29,4.38,3.26,7.12,1.97,2.74,4.93,5.28,8.88,7.62,3.68,2.14,7.47,3.7,11.39,4.66,3.91,.97,7.57,1.45,10.98,1.45,3.75,0,6.79-.47,9.13-1.4,2.34-.94,4.18-2.06,5.52-3.36,1.34-1.3,2.27-2.62,2.81-3.96,.53-1.34,.84-2.41,.9-3.21-.07-1.34-.69-2.62-1.86-3.86-1.17-1.24-2.74-2.44-4.72-3.61-1.97-1.17-4.26-2.36-6.87-3.56s-5.32-2.41-8.13-3.61c-4.21-1.87-7.84-3.63-10.88-5.27-3.04-1.64-5.55-3.31-7.52-5.02-1.97-1.7-3.41-3.49-4.31-5.37-.9-1.87-1.35-4.01-1.35-6.42,0-3.74,1.14-7.29,3.41-10.63,2.27-3.34,5.55-5.88,9.83-7.62,2.14-.94,4.43-1.61,6.87-2.01s4.83-.6,7.17-.6c4.41,0,8.73,.6,12.94,1.81,4.21,1.2,8.43,2.74,12.64,4.61Z"/><path d="M547.94,188.99c-.27,4.15-1,7.71-2.21,10.68-1.2,2.98-2.93,5.59-5.17,7.83-2.24,2.24-4.97,4.26-8.18,6.07-3.21,1.81-6.96,3.55-11.24,5.22,0,.4-.02,.82-.05,1.25-.03,.44-.05,.89-.05,1.35,0,.87,.07,1.77,.2,2.71,.13,.94,.37,1.81,.7,2.61,.33,.8,.8,1.45,1.41,1.96,.6,.5,1.37,.75,2.31,.75,1.81,0,3.58-.4,5.32-1.2,1.74-.8,3.39-1.79,4.97-2.96,1.57-1.17,3.04-2.44,4.41-3.81s2.59-2.62,3.66-3.76c.67,.6,1.24,1.17,1.7,1.71-3.01,4.01-6.3,7.34-9.88,9.98-3.58,2.64-6.97,4.33-10.18,5.07-4.61-.54-8.21-2.22-10.78-5.07-2.58-2.84-3.86-6.27-3.86-10.28,0-2.74,.38-5.53,1.15-8.38,.77-2.84,1.84-5.58,3.21-8.23,1.37-2.64,2.97-5.13,4.82-7.47,1.84-2.34,3.81-4.38,5.92-6.12,2.11-1.74,4.28-3.11,6.52-4.11,2.24-1,4.46-1.5,6.67-1.5,3.08,.4,5.95,2.31,8.63,5.72Zm-6.92,3.31c-1.81,.27-3.68,1-5.62,2.21s-3.76,2.81-5.47,4.82c-1.7,2.01-3.26,4.35-4.66,7.02s-2.51,5.55-3.31,8.63c5.35-2.67,9.8-5.97,13.34-9.88,3.54-3.91,5.45-8.18,5.72-12.79Z"/><path d="M587.17,189.99c.67,0,1.45,.12,2.36,.35,.9,.24,1.72,.54,2.46,.9,.74,.37,1.35,.75,1.86,1.15s.75,.77,.75,1.1c-1.34,2.81-2.57,5.63-3.71,8.48-1.14,2.84-2.11,5.57-2.91,8.18-.8,2.61-1.42,5.05-1.86,7.32-.44,2.27-.65,4.25-.65,5.92,0,1.87,.2,3.43,.6,4.66,.4,1.24,1.07,2.12,2.01,2.66-.8,.53-1.84,.97-3.11,1.3-1.27,.33-2.41,.5-3.41,.5-3.61,0-5.42-2.47-5.42-7.42,0-3.81,1.27-9.03,3.81-15.65-1.34,3.06-2.88,5.94-4.61,8.64-1.74,2.7-3.51,5.08-5.32,7.14-1.81,2.06-3.63,3.75-5.47,5.04-1.84,1.3-3.53,2.08-5.07,2.35-2.48,0-4.48-1.12-6.02-3.37-1.54-2.25-2.31-5.12-2.31-8.61,0-3.76,.8-7.72,2.41-11.89,1.61-4.16,3.66-8.03,6.17-11.59,2.51-3.56,5.23-6.53,8.18-8.91,2.94-2.38,5.78-3.58,8.53-3.58,.67,.2,1.42,.6,2.26,1.2,.84,.6,1.64,1.3,2.41,2.1,.77,.8,1.42,1.62,1.96,2.45,.53,.83,.84,1.55,.9,2.15-2.68,.4-5.43,1.7-8.28,3.9-2.84,2.2-5.42,4.85-7.72,7.96-2.31,3.1-4.2,6.42-5.67,9.96-1.47,3.54-2.21,6.84-2.21,9.91,0,1.27,.47,2.07,1.4,2.4,1.94-.4,4.18-2.06,6.72-4.97,2.54-2.91,5.62-7.41,9.23-13.49,.67-1.2,1.42-2.54,2.26-4.01,.84-1.47,1.69-3.01,2.56-4.61,.87-1.6,1.72-3.23,2.56-4.87,.84-1.64,1.62-3.23,2.36-4.77Z"/><path d="M597.3,228.51c.33-1.94,.92-4.5,1.76-7.67,.84-3.18,1.82-6.55,2.96-10.13,1.14-3.58,2.34-7.17,3.61-10.78,1.27-3.61,2.51-6.85,3.71-9.73,.87-2.07,1.64-3.69,2.31-4.87,.67-1.17,1.4-2.16,2.21-2.96,.94,.14,1.91,.37,2.91,.7,1,.34,1.97,.74,2.91,1.2,.94,.47,1.77,.95,2.51,1.45,.74,.5,1.3,.99,1.7,1.46-1.81,2.14-3.4,4.58-4.77,7.32-1.37,2.74-2.76,6.25-4.16,10.53,3.61-3.21,6.81-6.29,9.58-9.23,2.77-2.94,5.37-6.22,7.77-9.83,.4-.33,1.1-.5,2.11-.5,.94,0,1.84,.15,2.71,.45,.87,.3,1.47,.72,1.81,1.25-1.2,3.21-1.81,6.39-1.81,9.53,0,2.94,.43,5.15,1.3,6.62-.07,.4-.52,1.17-1.36,2.31-.84,1.14-1.76,2.21-2.76,3.21-1.81-.94-3.41-2.22-4.82-3.86-1.41-1.64-2.44-3.43-3.11-5.37-3.14,2.21-5.82,4.36-8.03,6.47-2.21,2.11-4.1,4.45-5.67,7.02-1.57,2.58-2.91,5.54-4.01,8.88-1.1,3.35-2.16,7.32-3.16,11.94-.6-.07-1.32-.29-2.16-.65-.84-.37-1.67-.82-2.51-1.36-.84-.54-1.59-1.1-2.26-1.7-.67-.6-1.1-1.17-1.3-1.7Z"/><path d="M640.73,212.86c0-3.81,.79-7.51,2.36-11.08,1.57-3.58,3.64-6.76,6.22-9.53,2.57-2.78,5.52-5.02,8.83-6.72,3.31-1.7,6.74-2.56,10.28-2.56s6.15,.87,8.03,2.61c1.87,1.74,2.81,4.21,2.81,7.42,0,1.54-.22,3.03-.65,4.46-.44,1.44-1,2.73-1.71,3.86s-1.52,2.06-2.46,2.76c-.94,.7-1.87,1.05-2.81,1.05-.8,0-1.62-.25-2.46-.75s-1.52-1.15-2.06-1.96c4.48-4.08,6.72-7.79,6.72-11.14,0-1.94-.77-2.91-2.31-2.91-1.34,0-3.01,.64-5.02,1.91-2.01,1.27-3.95,2.94-5.82,5.02-2.88,3.21-5.07,6.77-6.57,10.68-1.5,3.91-2.26,8.01-2.26,12.29,0,5.42,1.2,8.66,3.61,9.73,1-.13,2.17-.43,3.51-.9,1.34-.47,2.78-1.09,4.31-1.86,1.54-.77,3.13-1.66,4.77-2.66,1.64-1,3.23-2.07,4.77-3.21,.27,.2,.5,.5,.7,.9s.3,.77,.3,1.1c-1.14,1.4-2.44,2.78-3.91,4.11-1.47,1.34-3.01,2.56-4.61,3.66-1.61,1.1-3.16,2.04-4.66,2.81-1.51,.77-2.83,1.25-3.96,1.46-2.21-.2-4.28-.89-6.22-2.06s-3.63-2.69-5.07-4.56c-1.44-1.87-2.57-4.01-3.41-6.42-.84-2.41-1.25-4.92-1.25-7.52Z"/><path d="M682.17,228.81c0-2.34,.23-5.1,.7-8.28,.47-3.18,1.15-6.57,2.06-10.18,.9-3.61,1.97-7.39,3.21-11.34,1.24-3.95,2.62-7.89,4.16-11.84,1.34-3.54,2.89-7.12,4.66-10.73,1.77-3.61,3.69-7.16,5.77-10.63,2.07-3.48,4.23-6.79,6.47-9.93,2.24-3.14,4.5-6.02,6.77-8.63,1.07,0,2.22,.13,3.46,.4,1.24,.27,2.44,.62,3.61,1.05,1.17,.44,2.24,.95,3.21,1.56,.97,.6,1.76,1.2,2.36,1.81-5.02,5.15-9.53,10.35-13.54,15.6-4.01,5.25-7.19,10.18-9.53,14.8-1.27,2.54-2.42,4.92-3.46,7.12-1.04,2.21-1.99,4.4-2.86,6.57-.87,2.17-1.66,4.35-2.36,6.52-.7,2.17-1.35,4.46-1.96,6.87,12.84-16.38,22.37-24.58,28.59-24.58,1.74,0,3.61,.57,5.62,1.7,2.01,1.14,3.78,2.68,5.32,4.61-2.07,2.27-4.21,5.02-6.42,8.23-2.21,3.21-4.23,6.44-6.07,9.68-1.84,3.24-3.35,6.25-4.51,9.03-1.17,2.78-1.76,4.83-1.76,6.17,0,.67,.1,1.12,.3,1.35,.2,.23,.64,.35,1.3,.35,1,0,1.81-.13,2.41-.4,.6-.27,.97-.4,1.1-.4,.33,.54,.53,.9,.6,1.1,.06,.2,.1,.37,.1,.5,0,.27-.4,.65-1.2,1.15-.8,.5-1.76,1-2.86,1.51s-2.19,.95-3.26,1.35c-1.07,.4-1.87,.6-2.41,.6-.67,0-1.34-.18-2.01-.55-.67-.37-1.25-.85-1.76-1.45s-.9-1.27-1.2-2.01c-.3-.74-.45-1.5-.45-2.31,0-1,.28-2.49,.85-4.46,.57-1.97,1.35-4.28,2.36-6.92,1-2.64,2.21-5.53,3.61-8.68,1.4-3.14,2.91-6.35,4.51-9.63,0-.27-.13-.4-.4-.4-.2,0-.72,.27-1.56,.8-.84,.54-1.62,1.07-2.36,1.61-2.41,1.81-4.83,4.03-7.27,6.67-2.44,2.64-4.82,5.54-7.12,8.68-2.31,3.14-4.48,6.47-6.52,9.98-2.04,3.51-3.8,7.04-5.27,10.58-.2,.47-.5,.9-.9,1.3s-.74,.6-1,.6c-.2,0-.49-.23-.85-.7-.37-.47-.7-1.05-1-1.76-.3-.7-.59-1.42-.85-2.16-.27-.74-.4-1.37-.4-1.91Z"/></g><path d="M331.83,274.47c-85.88,4.86-171.05,14.08-256.2,26.98-1.5,.23-1.99-1.93-.54-2.37,4.31-1.31,8.61-2.59,12.64-3.81,14.56-4.05,32.85-8.81,47.74-12.19,89.66-20.54,181.99-29.85,273.87-31.98,86.82-1.45,174.28,2.29,260.02,16.67,1.48,.25,1.3,2.45-.21,2.43-53.57-.48-237.86-1.63-337.33,4.27Z"/></g></svg>